<?xml version="1.0" encoding="UTF-8"?>
<!-- Macula SDK availability announcement banner. Long-form Macula logo
     (macula-artwork's own macula-full-light.svg, untouched) plus the
     four shipped SDK badges (Go/Rust/PHP/.NET), each already licensed
     and composed in its own repo, reused verbatim here, not redrawn.
     Each badge links to its repo; note that raster exports (PNG, and
     anything a platform like LinkedIn re-encodes on upload) lose that
     link, since only the SVG itself is clickable. -->
<svg xmlns="http://www.w3.org/2000/svg" xmlns:xlink="http://www.w3.org/1999/xlink"
     viewBox="0 0 1200 630" width="1200" height="630">
  <defs>
    
  </defs>

  <rect width="1200" height="630" fill="#0B1220"/>

  <g transform="translate(192.00, 70.00) scale(3.4)">
    
  <!-- Icon -->
  <g transform="translate(4, 0) scale(0.64)">
    <!-- Subtle grid -->
    <g stroke="#1E3A5F" stroke-width="0.5" opacity="0.1">
      <line x1="0" y1="25" x2="100" y2="25"/>
      <line x1="0" y1="50" x2="100" y2="50"/>
      <line x1="0" y1="75" x2="100" y2="75"/>
      <line x1="25" y1="0" x2="25" y2="100"/>
      <line x1="50" y1="0" x2="50" y2="100"/>
      <line x1="75" y1="0" x2="75" y2="100"/>
    </g>

    <!-- Irregular mesh connections -->
    <g stroke="#0EA5E9" stroke-width="1.5" fill="none">
      <line x1="22" y1="20" x2="50" y2="32"/>
      <line x1="50" y1="32" x2="78" y2="18"/>
      <line x1="22" y1="20" x2="15" y2="52"/>
      <line x1="78" y1="18" x2="85" y2="45"/>
      <line x1="15" y1="52" x2="35" y2="55"/>
      <line x1="35" y1="55" x2="50" y2="50"/>
      <line x1="50" y1="50" x2="68" y2="48"/>
      <line x1="68" y1="48" x2="85" y2="45"/>
      <line x1="15" y1="52" x2="28" y2="80"/>
      <line x1="35" y1="55" x2="50" y2="78"/>
      <line x1="50" y1="50" x2="50" y2="78"/>
      <line x1="68" y1="48" x2="72" y2="75"/>
      <line x1="85" y1="45" x2="72" y2="75"/>
      <line x1="28" y1="80" x2="50" y2="78"/>
      <line x1="50" y1="78" x2="72" y2="75"/>
      <line x1="22" y1="20" x2="35" y2="55" stroke-dasharray="3,2" opacity="0.6"/>
      <line x1="78" y1="18" x2="68" y2="48" stroke-dasharray="3,2" opacity="0.6"/>
      <line x1="50" y1="32" x2="50" y2="50" stroke-dasharray="3,2" opacity="0.6"/>
    </g>

    <!-- Orange accents -->
    <g stroke="#F97316" stroke-width="2" fill="none" opacity="0.9">
      <line x1="35" y1="55" x2="68" y2="48"/>
      <line x1="50" y1="32" x2="35" y2="55" stroke-dasharray="4,3"/>
    </g>

    <!-- Primary nodes -->
    <g stroke="#0EA5E9" stroke-width="2" fill="#0C1929">
      <circle cx="22" cy="20" r="4"/>
      <circle cx="78" cy="18" r="4"/>
      <circle cx="15" cy="52" r="3"/>
      <circle cx="85" cy="45" r="3"/>
      <circle cx="28" cy="80" r="4"/>
      <circle cx="72" cy="75" r="4"/>
    </g>

    <!-- Hub nodes - white -->
    <g stroke="#0EA5E9" stroke-width="2" fill="white">
      <circle cx="50" cy="32" r="4"/>
      <circle cx="50" cy="78" r="4"/>
    </g>

    <!-- Central hub -->
    <circle cx="50" cy="50" r="7" stroke="#0EA5E9" stroke-width="2" fill="#0C1929"/>
    <circle cx="50" cy="50" r="3.5" fill="#0EA5E9"/>

    <!-- Secondary nodes -->
    <g stroke="#0EA5E9" stroke-width="1.5" fill="#0C1929">
      <circle cx="35" cy="55" r="3"/>
      <circle cx="68" cy="48" r="3"/>
    </g>
    <g fill="#F97316">
      <circle cx="35" cy="55" r="1.5"/>
      <circle cx="68" cy="48" r="1.5"/>
    </g>
  </g>

  <!-- Wordmark - centered vertically -->
  <text x="76" y="42"
        font-family="'JetBrains Mono', 'Fira Code', 'SF Mono', Consolas, monospace"
        font-size="32"
        font-weight="600"
        fill="#0EA5E9"
        letter-spacing="-0.5px">MACULA</text>

  </g>

  <text x="600.0" y="270" text-anchor="middle"
        font-family="'JetBrains Mono','Fira Code','SF Mono',Consolas,monospace"
        font-size="26" fill="#94A3B8">Official SDKs, now available</text>

  <line x1="340.0" y1="320" x2="860.0" y2="320" stroke="#1E293B" stroke-width="1"/>

  
  <a href="https://github.com/macula-io/macula-go" target="_blank" rel="noopener">
    <g transform="translate(-89.54, 64.46) scale(6.7692)">
      <circle cx="54" cy="54" r="13" fill="#F8FAFC" stroke="#0EA5E9" stroke-width="2"/>
  <g transform="translate(45.38, 42.00) scale(0.04290)">
    <path fill-rule="evenodd" clip-rule="evenodd" fill="#F6D2A2" stroke="#000000" stroke-width="3" stroke-linecap="round" d="
	M10.634,300.493c0.764,15.751,16.499,8.463,23.626,3.539c6.765-4.675,8.743-0.789,9.337-10.015
	c0.389-6.064,1.088-12.128,0.744-18.216c-10.23-0.927-21.357,1.509-29.744,7.602C10.277,286.542,2.177,296.561,10.634,300.493"/>
<path fill-rule="evenodd" clip-rule="evenodd" fill="#C6B198" stroke="#000000" stroke-width="3" stroke-linecap="round" d="
	M10.634,300.493c2.29-0.852,4.717-1.457,6.271-3.528"/>
<path fill-rule="evenodd" clip-rule="evenodd" fill="#6AD7E5" stroke="#000000" stroke-width="3" stroke-linecap="round" d="
	M46.997,112.853C-13.3,95.897,31.536,19.189,79.956,50.74L46.997,112.853z"/>
<path fill-rule="evenodd" clip-rule="evenodd" fill="#6AD7E5" stroke="#000000" stroke-width="3" stroke-linecap="round" d="
	M314.895,44.984c47.727-33.523,90.856,42.111,35.388,61.141L314.895,44.984z"/>
<path fill-rule="evenodd" clip-rule="evenodd" fill="#F6D2A2" stroke="#000000" stroke-width="3" stroke-linecap="round" d="
	M325.161,494.343c12.123,7.501,34.282,30.182,16.096,41.18c-17.474,15.999-27.254-17.561-42.591-22.211
	C305.271,504.342,313.643,496.163,325.161,494.343z"/>
<path fill-rule="evenodd" clip-rule="evenodd" fill="none" stroke="#000000" stroke-width="3" stroke-linecap="round" d="
	M341.257,535.522c-2.696-5.361-3.601-11.618-8.102-15.939"/>
<path fill-rule="evenodd" clip-rule="evenodd" fill="#F6D2A2" stroke="#000000" stroke-width="3" stroke-linecap="round" d="
	M108.579,519.975c-14.229,2.202-22.238,15.039-34.1,21.558c-11.178,6.665-15.454-2.134-16.461-3.92
	c-1.752-0.799-1.605,0.744-4.309-1.979c-10.362-16.354,10.797-28.308,21.815-36.432C90.87,496.1,100.487,509.404,108.579,519.975z"
	/>
<path fill-rule="evenodd" clip-rule="evenodd" fill="none" stroke="#000000" stroke-width="3" stroke-linecap="round" d="
	M58.019,537.612c0.542-6.233,5.484-10.407,7.838-15.677"/>
<path fill-rule="evenodd" clip-rule="evenodd" d="M49.513,91.667c-7.955-4.208-13.791-9.923-8.925-19.124
	c4.505-8.518,12.874-7.593,20.83-3.385L49.513,91.667z"/>
<path fill-rule="evenodd" clip-rule="evenodd" d="M337.716,83.667c7.955-4.208,13.791-9.923,8.925-19.124
	c-4.505-8.518-12.874-7.593-20.83-3.385L337.716,83.667z"/>
<path fill-rule="evenodd" clip-rule="evenodd" fill="#F6D2A2" stroke="#000000" stroke-width="3" stroke-linecap="round" d="
	M392.475,298.493c-0.764,15.751-16.499,8.463-23.626,3.539c-6.765-4.675-8.743-0.789-9.337-10.015
	c-0.389-6.064-1.088-12.128-0.744-18.216c10.23-0.927,21.357,1.509,29.744,7.602C392.831,284.542,400.932,294.561,392.475,298.493"
	/>
<path fill-rule="evenodd" clip-rule="evenodd" fill="#C6B198" stroke="#000000" stroke-width="3" stroke-linecap="round" d="
	M392.475,298.493c-2.29-0.852-4.717-1.457-6.271-3.528"/>
<g>
	<path fill-rule="evenodd" clip-rule="evenodd" fill="#6AD7E5" stroke="#000000" stroke-width="3" stroke-linecap="round" d="
		M195.512,13.124c60.365,0,116.953,8.633,146.452,66.629c26.478,65.006,17.062,135.104,21.1,203.806
		c3.468,58.992,11.157,127.145-16.21,181.812c-28.79,57.514-100.73,71.982-160,69.863c-46.555-1.666-102.794-16.854-129.069-59.389
		c-30.826-49.9-16.232-124.098-13.993-179.622c2.652-65.771-17.815-131.742,3.792-196.101
		C69.999,33.359,130.451,18.271,195.512,13.124"/>
</g>
<path fill-rule="evenodd" clip-rule="evenodd" fill="#FFFFFF" stroke="#000000" stroke-width="2.9081" stroke-linecap="round" d="
	M206.169,94.16c10.838,63.003,113.822,46.345,99.03-17.197C291.935,19.983,202.567,35.755,206.169,94.16"/>
<path fill-rule="evenodd" clip-rule="evenodd" fill="#FFFFFF" stroke="#000000" stroke-width="2.8214" stroke-linecap="round" d="
	M83.103,104.35c14.047,54.85,101.864,40.807,98.554-14.213C177.691,24.242,69.673,36.957,83.103,104.35"/>
<path fill-rule="evenodd" clip-rule="evenodd" fill="#FFFFFF" stroke="#000000" stroke-width="3" stroke-linecap="round" d="
	M218.594,169.762c0.046,8.191,1.861,17.387,0.312,26.101c-2.091,3.952-6.193,4.37-9.729,5.967c-4.89-0.767-9.002-3.978-10.963-8.552
	c-1.255-9.946,0.468-19.576,0.785-29.526L218.594,169.762z"/>
<g>
	<ellipse fill-rule="evenodd" clip-rule="evenodd" cx="107.324" cy="95.404" rx="14.829" ry="16.062"/>
	<ellipse fill-rule="evenodd" clip-rule="evenodd" fill="#FFFFFF" cx="114.069" cy="99.029" rx="3.496" ry="4.082"/>
</g>
<g>
	<ellipse fill-rule="evenodd" clip-rule="evenodd" cx="231.571" cy="91.404" rx="14.582" ry="16.062"/>
	<ellipse fill-rule="evenodd" clip-rule="evenodd" fill="#FFFFFF" cx="238.204" cy="95.029" rx="3.438" ry="4.082"/>
</g>
<path fill-rule="evenodd" clip-rule="evenodd" fill="#FFFFFF" stroke="#000000" stroke-width="3" stroke-linecap="round" d="
	M176.217,168.87c-6.47,15.68,3.608,47.035,21.163,23.908c-1.255-9.946,0.468-19.576,0.785-29.526L176.217,168.87z"/>
<g>
	<path fill-rule="evenodd" clip-rule="evenodd" fill="#F6D2A2" stroke="#231F20" stroke-width="3" stroke-linecap="round" d="
		M178.431,138.673c-12.059,1.028-21.916,15.366-15.646,26.709c8.303,15.024,26.836-1.329,38.379,0.203
		c13.285,0.272,24.17,14.047,34.84,2.49c11.867-12.854-5.109-25.373-18.377-30.97L178.431,138.673z"/>
	<path fill-rule="evenodd" clip-rule="evenodd" d="M176.913,138.045c-0.893-20.891,38.938-23.503,43.642-6.016
		C225.247,149.475,178.874,153.527,176.913,138.045C175.348,125.682,176.913,138.045,176.913,138.045z"/>
</g>
  </g>

    </g>
    <text x="276.0" y="552.0" text-anchor="middle"
          font-family="'JetBrains Mono','Fira Code','SF Mono',Consolas,monospace"
          font-size="22" font-weight="600" fill="#E2E8F0">Go</text>
  </a>
  <a href="https://github.com/macula-io/macula-rust" target="_blank" rel="noopener">
    <g transform="translate(126.46, 64.46) scale(6.7692)">
      <circle cx="54" cy="54" r="13" fill="#FFFFFF" stroke="#0EA5E9" stroke-width="2"/>
  <g transform="translate(43.00, 43.00) scale(0.1528)" fill="#0C1929">
    <path d="m71.05 23.68c-26.06 0-47.27 21.22-47.27 47.27s21.22 47.27 47.27 47.27 47.27-21.22 47.27-47.27-21.22-47.27-47.27-47.27zm-.07 4.2a3.1 3.11 0 0 1 3.02 3.11 3.11 3.11 0 0 1 -6.22 0 3.11 3.11 0 0 1 3.2-3.11zm7.12 5.12a38.27 38.27 0 0 1 26.2 18.66l-3.67 8.28c-.63 1.43.02 3.11 1.44 3.75l7.06 3.13a38.27 38.27 0 0 1 .08 6.64h-3.93c-.39 0-.55.26-.55.64v1.8c0 4.24-2.39 5.17-4.49 5.4-2 .23-4.21-.84-4.49-2.06-1.18-6.63-3.14-8.04-6.24-10.49 3.85-2.44 7.85-6.05 7.85-10.87 0-5.21-3.57-8.49-6-10.1-3.42-2.25-7.2-2.7-8.22-2.7h-40.6a38.27 38.27 0 0 1 21.41-12.08l4.79 5.02c1.08 1.13 2.87 1.18 4 .09zm-44.2 23.02a3.11 3.11 0 0 1 3.02 3.11 3.11 3.11 0 0 1 -6.22 0 3.11 3.11 0 0 1 3.2-3.11zm74.15.14a3.11 3.11 0 0 1 3.02 3.11 3.11 3.11 0 0 1 -6.22 0 3.11 3.11 0 0 1 3.2-3.11zm-68.29.5h5.42v24.44h-10.94a38.27 38.27 0 0 1 -1.24-14.61l6.7-2.98c1.43-.64 2.08-2.31 1.44-3.74zm22.62.26h12.91c.67 0 4.71.77 4.71 3.8 0 2.51-3.1 3.41-5.65 3.41h-11.98zm0 17.56h9.89c.9 0 4.83.26 6.08 5.28.39 1.54 1.26 6.56 1.85 8.17.59 1.8 2.98 5.4 5.53 5.4h16.14a38.27 38.27 0 0 1 -3.54 4.1l-6.57-1.41c-1.53-.33-3.04.65-3.37 2.18l-1.56 7.28a38.27 38.27 0 0 1 -31.91-.15l-1.56-7.28c-.33-1.53-1.83-2.51-3.36-2.18l-6.43 1.38a38.27 38.27 0 0 1 -3.32-3.92h31.27c.35 0 .59-.06.59-.39v-11.06c0-.32-.24-.39-.59-.39h-9.15zm-14.43 25.33a3.11 3.11 0 0 1 3.02 3.11 3.11 3.11 0 0 1 -6.22 0 3.11 3.11 0 0 1 3.2-3.11zm46.05.14a3.11 3.11 0 0 1 3.02 3.11 3.11 3.11 0 0 1 -6.22 0 3.11 3.11 0 0 1 3.2-3.11z"/>
    <path d="m115.68 70.95a44.63 44.63 0 0 1 -44.63 44.63 44.63 44.63 0 0 1 -44.63-44.63 44.63 44.63 0 0 1 44.63-44.63 44.63 44.63 0 0 1 44.63 44.63zm-.84-4.31 6.96 4.31-6.96 4.31 5.98 5.59-7.66 2.87 4.78 6.65-8.09 1.32 3.4 7.46-8.19-.29 1.88 7.98-7.98-1.88.29 8.19-7.46-3.4-1.32 8.09-6.65-4.78-2.87 7.66-5.59-5.98-4.31 6.96-4.31-6.96-5.59 5.98-2.87-7.66-6.65 4.78-1.32-8.09-7.46 3.4.29-8.19-7.98 1.88 1.88-7.98-8.19.29 3.4-7.46-8.09-1.32 4.78-6.65-7.66-2.87 5.98-5.59-6.96-4.31 6.96-4.31-5.98-5.59 7.66-2.87-4.78-6.65 8.09-1.32-3.4-7.46 8.19.29-1.88-7.98 7.98 1.88-.29-8.19 7.46 3.4 1.32-8.09 6.65 4.78 2.87-7.66 5.59 5.98 4.31-6.96 4.31 6.96 5.59-5.98 2.87 7.66 6.65-4.78 1.32 8.09 7.46-3.4-.29 8.19 7.98-1.88-1.88 7.98 8.19-.29-3.4 7.46 8.09 1.32-4.78 6.65 7.66 2.87z" fill-rule="evenodd" stroke="#0C1929" stroke-linecap="round" stroke-linejoin="round" stroke-width="3"/>
  </g>

    </g>
    <text x="492.0" y="552.0" text-anchor="middle"
          font-family="'JetBrains Mono','Fira Code','SF Mono',Consolas,monospace"
          font-size="22" font-weight="600" fill="#E2E8F0">Rust</text>
  </a>
  <a href="https://github.com/macula-io/macula-php" target="_blank" rel="noopener">
    <g transform="translate(342.46, 64.46) scale(6.7692)">
      <circle cx="54" cy="54" r="13" fill="#F8FAFC" stroke="#0EA5E9" stroke-width="2"/>
  <g transform="translate(41.00, 46.99) scale(0.036558)">
    <g id="php-g3438" transform="matrix(1.25,0,0,-1.25,-4.4,394.29875)">
    <g id="php-g3440">
      <g clip-path="url(#php-clipPath3444)" id="php-g3442">
        <g id="php-g3448">
          <g id="php-g3450">
            <path d="M 11.52,162 C 11.52,81.677 135.307,16.561 288,16.561 l 0,0 c 152.693,0 276.481,65.116 276.481,145.439 l 0,0 c 0,80.322 -123.788,145.439 -276.481,145.439 l 0,0 C 135.307,307.439 11.52,242.322 11.52,162" id="php-path3462" style="fill:url(#php-radialGradient3452);stroke:none"/>
          </g>
        </g>
      </g>
    </g>
    <g id="php-g3464">
      <g clip-path="url(#php-clipPath3468)" id="php-g3466">
        <g id="php-g3472" transform="translate(288,27.3594)">
          <path d="M 0,0 C 146.729,0 265.68,60.281 265.68,134.641 265.68,209 146.729,269.282 0,269.282 -146.729,269.282 -265.68,209 -265.68,134.641 -265.68,60.281 -146.729,0 0,0" id="php-path3474" style="fill:#777bb3;fill-opacity:1;fill-rule:nonzero;stroke:none"/>
        </g>
      </g>
    </g>
    <g id="php-g3476">
      <g clip-path="url(#php-clipPath3480)" id="php-g3478">
        <g id="php-g3484" transform="translate(161.7344,145.3066)">
          <path d="m 0,0 c 12.065,0 21.072,2.225 26.771,6.611 5.638,4.341 9.532,11.862 11.573,22.353 1.903,9.806 1.178,16.653 -2.154,20.348 C 32.783,53.086 25.417,55 14.297,55 L -4.984,55 -15.673,0 0,0 Z m -63.063,-67.75 c -0.895,0 -1.745,0.4 -2.314,1.092 -0.57,0.691 -0.801,1.601 -0.63,2.48 L -37.679,81.573 C -37.405,82.982 -36.17,84 -34.734,84 L 26.32,84 C 45.508,84 59.79,78.79 68.767,68.513 77.792,58.182 80.579,43.741 77.05,25.592 75.614,18.198 73.144,11.331 69.709,5.183 66.27,-0.972 61.725,-6.667 56.198,-11.747 49.582,-17.939 42.094,-22.429 33.962,-25.071 25.959,-27.678 15.681,-29 3.414,-29 l -24.722,0 -7.06,-36.322 c -0.274,-1.41 -1.508,-2.428 -2.944,-2.428 l -31.751,0 z" id="php-path3486" style="fill:#000000;fill-opacity:1;fill-rule:nonzero;stroke:none"/>
        </g>
        <g id="php-g3488" transform="translate(159.2236,197.3071)">
          <path d="m 0,0 16.808,0 c 13.421,0 18.083,-2.945 19.667,-4.7 2.628,-2.914 3.124,-9.058 1.435,-17.767 C 36.012,-32.217 32.494,-39.13 27.452,-43.012 22.29,-46.986 13.898,-49 2.511,-49 L -9.523,-49 0,0 Z m 28.831,35 -61.055,0 c -2.872,0 -5.341,-2.036 -5.889,-4.855 l -28.328,-145.751 c -0.342,-1.759 0.12,-3.578 1.259,-4.961 1.14,-1.383 2.838,-2.183 4.63,-2.183 l 31.75,0 c 2.873,0 5.342,2.036 5.89,4.855 l 6.588,33.895 22.249,0 c 12.582,0 23.174,1.372 31.479,4.077 8.541,2.775 16.399,7.48 23.354,13.984 5.752,5.292 10.49,11.232 14.08,17.657 3.591,6.427 6.171,13.594 7.668,21.302 3.715,19.104 0.697,34.402 -8.969,45.466 C 63.965,29.444 48.923,35 28.831,35 m -45.633,-90 19.313,0 c 12.801,0 22.336,2.411 28.601,7.234 6.266,4.824 10.492,12.875 12.688,24.157 2.101,10.832 1.144,18.476 -2.871,22.929 C 36.909,3.773 28.87,6 16.808,6 L -4.946,6 -16.802,-55 M 28.831,29 C 47.198,29 60.597,24.18 69.019,14.539 77.44,4.898 79.976,-8.559 76.616,-25.836 75.233,-32.953 72.894,-39.46 69.601,-45.355 66.304,-51.254 61.999,-56.648 56.679,-61.539 50.339,-67.472 43.296,-71.7 35.546,-74.218 27.796,-76.743 17.925,-78 5.925,-78 l -27.196,0 -7.531,-38.75 -31.75,0 28.328,145.75 61.055,0" id="php-path3490" style="fill:#ffffff;fill-opacity:1;fill-rule:nonzero;stroke:none"/>
        </g>
        <g id="php-g3492" transform="translate(311.583,116.3066)">
          <path d="m 0,0 c -0.896,0 -1.745,0.4 -2.314,1.092 -0.571,0.691 -0.802,1.6 -0.631,2.48 L 9.586,68.061 C 10.778,74.194 10.484,78.596 8.759,80.456 7.703,81.593 4.531,83.5 -4.848,83.5 L -27.55,83.5 -43.305,2.428 C -43.579,1.018 -44.814,0 -46.25,0 l -31.5,0 c -0.896,0 -1.745,0.4 -2.315,1.092 -0.57,0.691 -0.801,1.601 -0.63,2.48 l 28.328,145.751 c 0.274,1.409 1.509,2.427 2.945,2.427 l 31.5,0 c 0.896,0 1.745,-0.4 2.315,-1.091 0.57,-0.692 0.801,-1.601 0.63,-2.481 L -21.813,113 2.609,113 c 18.605,0 31.221,-3.28 38.569,-10.028 7.49,-6.884 9.827,-17.891 6.947,-32.719 L 34.945,2.428 C 34.671,1.018 33.437,0 32,0 L 0,0 Z" id="php-path3494" style="fill:#000000;fill-opacity:1;fill-rule:nonzero;stroke:none"/>
        </g>
        <g id="php-g3496" transform="translate(293.6611,271.0571)">
          <path d="m 0,0 -31.5,0 c -2.873,0 -5.342,-2.036 -5.89,-4.855 l -28.328,-145.751 c -0.342,-1.759 0.12,-3.578 1.26,-4.961 1.14,-1.383 2.838,-2.183 4.63,-2.183 l 31.5,0 c 2.872,0 5.342,2.036 5.89,4.855 l 15.283,78.645 20.229,0 c 9.363,0 11.328,-2 11.407,-2.086 0.568,-0.611 1.315,-3.441 0.082,-9.781 l -12.531,-64.489 c -0.342,-1.759 0.12,-3.578 1.26,-4.961 1.14,-1.383 2.838,-2.183 4.63,-2.183 l 32,0 c 2.872,0 5.342,2.036 5.89,4.855 l 13.179,67.825 c 3.093,15.921 0.447,27.864 -7.861,35.5 -7.928,7.281 -21.208,10.82 -40.599,10.82 l -20.784,0 6.143,31.605 C 6.231,-5.386 5.77,-3.566 4.63,-2.184 3.49,-0.801 1.792,0 0,0 m 0,-6 -7.531,-38.75 28.062,0 c 17.657,0 29.836,-3.082 36.539,-9.238 6.703,-6.16 8.711,-16.141 6.032,-29.938 l -13.18,-67.824 -32,0 12.531,64.488 c 1.426,7.336 0.902,12.34 -1.574,15.008 -2.477,2.668 -7.746,4.004 -15.805,4.004 l -25.176,0 -16.226,-83.5 -31.5,0 L -31.5,-6 0,-6" id="php-path3498" style="fill:#ffffff;fill-opacity:1;fill-rule:nonzero;stroke:none"/>
        </g>
        <g id="php-g3500" transform="translate(409.5498,145.3066)">
          <path d="m 0,0 c 12.065,0 21.072,2.225 26.771,6.611 5.638,4.34 9.532,11.861 11.574,22.353 1.903,9.806 1.178,16.653 -2.155,20.348 C 32.783,53.086 25.417,55 14.297,55 L -4.984,55 -15.673,0 0,0 Z m -63.062,-67.75 c -0.895,0 -1.745,0.4 -2.314,1.092 -0.57,0.691 -0.802,1.601 -0.631,2.48 L -37.679,81.573 C -37.404,82.982 -36.17,84 -34.733,84 L 26.32,84 C 45.509,84 59.79,78.79 68.768,68.513 77.793,58.183 80.579,43.742 77.051,25.592 75.613,18.198 73.144,11.331 69.709,5.183 66.27,-0.972 61.725,-6.667 56.198,-11.747 49.582,-17.939 42.094,-22.429 33.962,-25.071 25.959,-27.678 15.681,-29 3.414,-29 l -24.723,0 -7.057,-36.322 c -0.275,-1.41 -1.509,-2.428 -2.946,-2.428 l -31.75,0 z" id="php-path3502" style="fill:#000000;fill-opacity:1;fill-rule:nonzero;stroke:none"/>
        </g>
        <g id="php-g3504" transform="translate(407.0391,197.3071)">
          <path d="M 0,0 16.808,0 C 30.229,0 34.891,-2.945 36.475,-4.7 39.104,-7.614 39.6,-13.758 37.91,-22.466 36.012,-32.217 32.493,-39.13 27.452,-43.012 22.29,-46.986 13.898,-49 2.511,-49 L -9.522,-49 0,0 Z m 28.831,35 -61.054,0 c -2.872,0 -5.341,-2.036 -5.889,-4.855 L -66.44,-115.606 c -0.342,-1.759 0.12,-3.578 1.259,-4.961 1.14,-1.383 2.838,-2.183 4.63,-2.183 l 31.75,0 c 2.872,0 5.342,2.036 5.89,4.855 l 6.587,33.895 22.249,0 c 12.582,0 23.174,1.372 31.479,4.077 8.541,2.775 16.401,7.481 23.356,13.986 5.752,5.291 10.488,11.23 14.078,17.655 3.591,6.427 6.171,13.594 7.668,21.302 3.715,19.105 0.697,34.403 -8.969,45.467 C 63.965,29.444 48.924,35 28.831,35 m -45.632,-90 19.312,0 c 12.801,0 22.336,2.411 28.601,7.234 6.267,4.824 10.492,12.875 12.688,24.157 2.102,10.832 1.145,18.476 -2.871,22.929 C 36.909,3.773 28.87,6 16.808,6 L -4.946,6 -16.801,-55 M 28.831,29 C 47.198,29 60.597,24.18 69.019,14.539 77.441,4.898 79.976,-8.559 76.616,-25.836 75.233,-32.953 72.894,-39.46 69.601,-45.355 66.304,-51.254 61.999,-56.648 56.679,-61.539 50.339,-67.472 43.296,-71.7 35.546,-74.218 27.796,-76.743 17.925,-78 5.925,-78 l -27.196,0 -7.53,-38.75 -31.75,0 28.328,145.75 61.054,0" id="php-path3506" style="fill:#ffffff;fill-opacity:1;fill-rule:nonzero;stroke:none"/>
        </g>
      </g>
    </g>
  </g>
  </g>

    </g>
    <text x="708.0" y="552.0" text-anchor="middle"
          font-family="'JetBrains Mono','Fira Code','SF Mono',Consolas,monospace"
          font-size="22" font-weight="600" fill="#E2E8F0">PHP</text>
  </a>
  <a href="https://github.com/macula-io/macula-dotnet" target="_blank" rel="noopener">
    <g transform="translate(558.46, 64.46) scale(6.7692)">
      <circle cx="54" cy="54" r="13" fill="#512BD4" stroke="#0EA5E9" stroke-width="2"/>
  <g transform="translate(43.000, 43.000) scale(0.048246)"><path d="M81.2738 291.333C78.0496 291.333 75.309 290.259 73.052 288.11C70.795 285.906 69.6665 283.289 69.6665 280.259C69.6665 277.173 70.795 274.529 73.052 272.325C75.309 270.121 78.0496 269.019 81.2738 269.019C84.5518 269.019 87.3193 270.121 89.5763 272.325C91.887 274.529 93.0424 277.173 93.0424 280.259C93.0424 283.289 91.887 285.906 89.5763 288.11C87.3193 290.259 84.5518 291.333 81.2738 291.333Z" fill="white"/><path d="M210.167 289.515H189.209L133.994 202.406C132.597 200.202 131.441 197.915 130.528 195.546H130.044C130.474 198.081 130.689 203.508 130.689 211.827V289.515H112.149V171H134.477L187.839 256.043C190.096 259.57 191.547 261.994 192.192 263.316H192.514C191.977 260.176 191.708 254.859 191.708 247.365V171H210.167V289.515Z" fill="white"/><path d="M300.449 289.515H235.561V171H297.87V187.695H254.746V221.249H294.485V237.861H254.746V272.903H300.449V289.515Z" fill="white"/><path d="M392.667 187.695H359.457V289.515H340.272V187.695H307.143V171H392.667V187.695Z" fill="white"/></g>

    </g>
    <text x="924.0" y="552.0" text-anchor="middle"
          font-family="'JetBrains Mono','Fira Code','SF Mono',Consolas,monospace"
          font-size="22" font-weight="600" fill="#E2E8F0">.NET</text>
  </a>

  <text x="600.0" y="600" text-anchor="middle"
        font-family="'JetBrains Mono','Fira Code','SF Mono',Consolas,monospace"
        font-size="16" fill="#475569">github.com/macula-io</text>
</svg>
