<?xml version="1.0" encoding="UTF-8"?>
<!-- Macula full logo, ERL badge (dark theme). Speculative: for a possible
     macula → macula-erl rename that would mark the Erlang/OTP reference
     implementation now that Go/Rust/PHP/.NET ports exist under their own
     macula-{lang} names — not an executed rename, see the artwork README.
     Badge glyph is Macrel, the mesh mascot (see macrel-mascot-dark.svg),
     simplified to badge scale the same way the CLI/MCP/Station badges are.
     See macula-erl-full-light.svg for the light variant. -->
<svg xmlns="http://www.w3.org/2000/svg" viewBox="0 0 240 88" width="240" height="88">
  <!-- Icon -->
  <g transform="translate(4, 12) scale(0.64)">
    <!-- Subtle grid -->
    <g stroke="#38BDF8" stroke-width="0.5" opacity="0.08">
      <line x1="0" y1="25" x2="100" y2="25"/>
      <line x1="0" y1="50" x2="100" y2="50"/>
      <line x1="0" y1="75" x2="100" y2="75"/>
      <line x1="25" y1="0" x2="25" y2="100"/>
      <line x1="50" y1="0" x2="50" y2="100"/>
      <line x1="75" y1="0" x2="75" y2="100"/>
    </g>

    <!-- Irregular mesh connections -->
    <g stroke="#38BDF8" stroke-width="1.5" fill="none">
      <line x1="22" y1="20" x2="50" y2="32"/>
      <line x1="50" y1="32" x2="78" y2="18"/>
      <line x1="22" y1="20" x2="15" y2="52"/>
      <line x1="78" y1="18" x2="85" y2="45"/>
      <line x1="15" y1="52" x2="35" y2="55"/>
      <line x1="35" y1="55" x2="50" y2="50"/>
      <line x1="50" y1="50" x2="68" y2="48"/>
      <line x1="68" y1="48" x2="85" y2="45"/>
      <line x1="15" y1="52" x2="28" y2="80"/>
      <line x1="35" y1="55" x2="50" y2="78"/>
      <line x1="50" y1="50" x2="50" y2="78"/>
      <line x1="68" y1="48" x2="72" y2="75"/>
      <line x1="85" y1="45" x2="72" y2="75"/>
      <line x1="28" y1="80" x2="50" y2="78"/>
      <line x1="50" y1="78" x2="72" y2="75"/>
      <line x1="22" y1="20" x2="35" y2="55" stroke-dasharray="3,2" opacity="0.5"/>
      <line x1="78" y1="18" x2="68" y2="48" stroke-dasharray="3,2" opacity="0.5"/>
      <line x1="50" y1="32" x2="50" y2="50" stroke-dasharray="3,2" opacity="0.5"/>
    </g>

    <!-- Orange accents -->
    <g stroke="#FB923C" stroke-width="2" fill="none">
      <line x1="35" y1="55" x2="68" y2="48"/>
      <line x1="50" y1="32" x2="35" y2="55" stroke-dasharray="4,3"/>
    </g>

    <!-- Primary nodes -->
    <g stroke="#38BDF8" stroke-width="2" fill="#1E293B">
      <circle cx="22" cy="20" r="4"/>
      <circle cx="78" cy="18" r="4"/>
      <circle cx="15" cy="52" r="3"/>
      <circle cx="85" cy="45" r="3"/>
      <circle cx="28" cy="80" r="4"/>
      <circle cx="72" cy="75" r="4"/>
    </g>

    <!-- Hub nodes -->
    <g stroke="#38BDF8" stroke-width="2" fill="#F8FAFC">
      <circle cx="50" cy="32" r="4"/>
      <circle cx="50" cy="78" r="4"/>
    </g>

    <!-- Central hub -->
    <circle cx="50" cy="50" r="7" stroke="#38BDF8" stroke-width="2" fill="#1E293B"/>
    <circle cx="50" cy="50" r="3.5" fill="#38BDF8"/>

    <!-- Secondary nodes -->
    <g stroke="#38BDF8" stroke-width="1.5" fill="#1E293B">
      <circle cx="35" cy="55" r="3"/>
      <circle cx="68" cy="48" r="3"/>
    </g>
    <g fill="#FB923C">
      <circle cx="35" cy="55" r="1.5"/>
      <circle cx="68" cy="48" r="1.5"/>
    </g>
  </g>

  <!-- Wordmark -->
  <text x="76" y="46"
        font-family="'JetBrains Mono', 'Fira Code', 'SF Mono', Consolas, monospace"
        font-size="30"
        font-weight="600"
        fill="#38BDF8"
        letter-spacing="-0.5px">MACULA</text>
  <text x="77" y="68"
        font-family="'JetBrains Mono', 'Fira Code', 'SF Mono', Consolas, monospace"
        font-size="15"
        font-weight="500"
        fill="#FB923C"
        letter-spacing="3px">ERL</text>

  <!-- ERL badge: Macrel, simplified to badge scale -->
  <circle cx="54" cy="66" r="13" fill="#1E293B" stroke="#38BDF8" stroke-width="2"/>
  <g transform="translate(42, 54)">
    <path d="M5,12 Q11,4 22,12 Q11,20 5,12 Z" fill="none" stroke="#F8FAFC" stroke-width="1.5" stroke-linejoin="round"/>
    <path d="M5,12 L1,7 M5,12 L1,17" fill="none" stroke="#F8FAFC" stroke-width="1.5" stroke-linecap="round"/>
    <path d="M13,6 L15,1 L17,6" fill="none" stroke="#F8FAFC" stroke-width="1.3" stroke-linecap="round" stroke-linejoin="round"/>
    <circle cx="18" cy="10.5" r="1.1" fill="#38BDF8"/>
    <g stroke="#FB923C" stroke-width="1.2" stroke-linecap="round">
      <line x1="8" y1="8" x2="10" y2="10"/>
      <line x1="11" y1="7" x2="13" y2="9"/>
    </g>
  </g>
</svg>
