<?xml version="1.0" encoding="UTF-8"?>
<!-- Macula ecosystem announcement card. Three groups under one long-form
     logo: BUILD splits into the three dedicated-port SDK badges
     (Go/Rust/.NET, reused verbatim from macula-sdk-announcement.svg - PHP
     dropped from this card only, its own SDK repo and the original SDK
     banner are untouched) and a second sub-row for the three languages
     that need no port at all because they're already the BEAM
     (Erlang/Elixir/Gleam - Erlang's badge is the real Erlang/OTP mark,
     verbatim like the SDK badges are; Elixir/Gleam are original
     simplified renditions of their marks, not verbatim brand assets);
     RUN carries the three deployable badges (macula-cli/macula-mcp/
     macula-station, reused verbatim from macula-deployables-announcement.svg).
     1200x1240 - taller than the two single-row banners (1200x630) since
     nine badges don't fit one LinkedIn-safe row; this one is sized for a
     README hero or a taller post, not the strict 1.91:1 safe zone. Each
     badge links to its repo or home page; a raster export (PNG, and
     anything a platform like LinkedIn re-encodes on upload) loses that
     link, since only the SVG
     itself is clickable. -->
<svg xmlns="http://www.w3.org/2000/svg" xmlns:xlink="http://www.w3.org/1999/xlink"
     viewBox="0 0 1200 1240" width="1200" height="1240">
  <rect width="1200" height="1240" fill="#0B1220"/>

  <g transform="translate(192.00, 70.00) scale(3.4)">

    <!-- Icon -->
    <g transform="translate(4, 0) scale(0.64)">
      <!-- Subtle grid -->
      <g stroke="#1E3A5F" stroke-width="0.5" opacity="0.1">
        <line x1="0" y1="25" x2="100" y2="25"/>
        <line x1="0" y1="50" x2="100" y2="50"/>
        <line x1="0" y1="75" x2="100" y2="75"/>
        <line x1="25" y1="0" x2="25" y2="100"/>
        <line x1="50" y1="0" x2="50" y2="100"/>
        <line x1="75" y1="0" x2="75" y2="100"/>
      </g>

      <!-- Irregular mesh connections -->
      <g stroke="#0EA5E9" stroke-width="1.5" fill="none">
        <line x1="22" y1="20" x2="50" y2="32"/>
        <line x1="50" y1="32" x2="78" y2="18"/>
        <line x1="22" y1="20" x2="15" y2="52"/>
        <line x1="78" y1="18" x2="85" y2="45"/>
        <line x1="15" y1="52" x2="35" y2="55"/>
        <line x1="35" y1="55" x2="50" y2="50"/>
        <line x1="50" y1="50" x2="68" y2="48"/>
        <line x1="68" y1="48" x2="85" y2="45"/>
        <line x1="15" y1="52" x2="28" y2="80"/>
        <line x1="35" y1="55" x2="50" y2="78"/>
        <line x1="50" y1="50" x2="50" y2="78"/>
        <line x1="68" y1="48" x2="72" y2="75"/>
        <line x1="85" y1="45" x2="72" y2="75"/>
        <line x1="28" y1="80" x2="50" y2="78"/>
        <line x1="50" y1="78" x2="72" y2="75"/>
        <line x1="22" y1="20" x2="35" y2="55" stroke-dasharray="3,2" opacity="0.6"/>
        <line x1="78" y1="18" x2="68" y2="48" stroke-dasharray="3,2" opacity="0.6"/>
        <line x1="50" y1="32" x2="50" y2="50" stroke-dasharray="3,2" opacity="0.6"/>
      </g>

      <!-- Orange accents -->
      <g stroke="#F97316" stroke-width="2" fill="none" opacity="0.9">
        <line x1="35" y1="55" x2="68" y2="48"/>
        <line x1="50" y1="32" x2="35" y2="55" stroke-dasharray="4,3"/>
      </g>

      <!-- Primary nodes -->
      <g stroke="#0EA5E9" stroke-width="2" fill="#0C1929">
        <circle cx="22" cy="20" r="4"/>
        <circle cx="78" cy="18" r="4"/>
        <circle cx="15" cy="52" r="3"/>
        <circle cx="85" cy="45" r="3"/>
        <circle cx="28" cy="80" r="4"/>
        <circle cx="72" cy="75" r="4"/>
      </g>

      <!-- Hub nodes - white -->
      <g stroke="#0EA5E9" stroke-width="2" fill="white">
        <circle cx="50" cy="32" r="4"/>
        <circle cx="50" cy="78" r="4"/>
      </g>

      <!-- Central hub -->
      <circle cx="50" cy="50" r="7" stroke="#0EA5E9" stroke-width="2" fill="#0C1929"/>
      <circle cx="50" cy="50" r="3.5" fill="#0EA5E9"/>

      <!-- Secondary nodes -->
      <g stroke="#0EA5E9" stroke-width="1.5" fill="#0C1929">
        <circle cx="35" cy="55" r="3"/>
        <circle cx="68" cy="48" r="3"/>
      </g>
      <g fill="#F97316">
        <circle cx="35" cy="55" r="1.5"/>
        <circle cx="68" cy="48" r="1.5"/>
      </g>
    </g>

    <!-- Wordmark - centered vertically -->
    <text x="76" y="42"
          font-family="'JetBrains Mono', 'Fira Code', 'SF Mono', Consolas, monospace"
          font-size="32"
          font-weight="600"
          fill="#0EA5E9"
          letter-spacing="-0.5px">MACULA</text>

  </g>

  <text x="600.0" y="270" text-anchor="middle"
        font-family="'JetBrains Mono','Fira Code','SF Mono',Consolas,monospace"
        font-size="26" fill="#94A3B8">The full mesh-native stack, now available</text>

  <!-- Row 1: SDKs (import these) -->
  <text x="600.0" y="316" text-anchor="middle"
        font-family="'JetBrains Mono','Fira Code','SF Mono',Consolas,monospace"
        font-size="15" font-weight="500" letter-spacing="3px" fill="#64748B">BUILD</text>

  <line x1="340.0" y1="342" x2="860.0" y2="342" stroke="#1E293B" stroke-width="1"/>

  <a href="https://github.com/macula-io/macula-go" target="_blank" rel="noopener">
    <g transform="translate(-89.54, 86.46) scale(6.7692)">
      <circle cx="54" cy="54" r="13" fill="#F8FAFC" stroke="#0EA5E9" stroke-width="2"/>
  <g transform="translate(45.38, 42.00) scale(0.04290)">
    <path fill-rule="evenodd" clip-rule="evenodd" fill="#F6D2A2" stroke="#000000" stroke-width="3" stroke-linecap="round" d="
	M10.634,300.493c0.764,15.751,16.499,8.463,23.626,3.539c6.765-4.675,8.743-0.789,9.337-10.015
	c0.389-6.064,1.088-12.128,0.744-18.216c-10.23-0.927-21.357,1.509-29.744,7.602C10.277,286.542,2.177,296.561,10.634,300.493"/>
<path fill-rule="evenodd" clip-rule="evenodd" fill="#C6B198" stroke="#000000" stroke-width="3" stroke-linecap="round" d="
	M10.634,300.493c2.29-0.852,4.717-1.457,6.271-3.528"/>
<path fill-rule="evenodd" clip-rule="evenodd" fill="#6AD7E5" stroke="#000000" stroke-width="3" stroke-linecap="round" d="
	M46.997,112.853C-13.3,95.897,31.536,19.189,79.956,50.74L46.997,112.853z"/>
<path fill-rule="evenodd" clip-rule="evenodd" fill="#6AD7E5" stroke="#000000" stroke-width="3" stroke-linecap="round" d="
	M314.895,44.984c47.727-33.523,90.856,42.111,35.388,61.141L314.895,44.984z"/>
<path fill-rule="evenodd" clip-rule="evenodd" fill="#F6D2A2" stroke="#000000" stroke-width="3" stroke-linecap="round" d="
	M325.161,494.343c12.123,7.501,34.282,30.182,16.096,41.18c-17.474,15.999-27.254-17.561-42.591-22.211
	C305.271,504.342,313.643,496.163,325.161,494.343z"/>
<path fill-rule="evenodd" clip-rule="evenodd" fill="none" stroke="#000000" stroke-width="3" stroke-linecap="round" d="
	M341.257,535.522c-2.696-5.361-3.601-11.618-8.102-15.939"/>
<path fill-rule="evenodd" clip-rule="evenodd" fill="#F6D2A2" stroke="#000000" stroke-width="3" stroke-linecap="round" d="
	M108.579,519.975c-14.229,2.202-22.238,15.039-34.1,21.558c-11.178,6.665-15.454-2.134-16.461-3.92
	c-1.752-0.799-1.605,0.744-4.309-1.979c-10.362-16.354,10.797-28.308,21.815-36.432C90.87,496.1,100.487,509.404,108.579,519.975z"
	/>
<path fill-rule="evenodd" clip-rule="evenodd" fill="none" stroke="#000000" stroke-width="3" stroke-linecap="round" d="
	M58.019,537.612c0.542-6.233,5.484-10.407,7.838-15.677"/>
<path fill-rule="evenodd" clip-rule="evenodd" d="M49.513,91.667c-7.955-4.208-13.791-9.923-8.925-19.124
	c4.505-8.518,12.874-7.593,20.83-3.385L49.513,91.667z"/>
<path fill-rule="evenodd" clip-rule="evenodd" d="M337.716,83.667c7.955-4.208,13.791-9.923,8.925-19.124
	c-4.505-8.518-12.874-7.593-20.83-3.385L337.716,83.667z"/>
<path fill-rule="evenodd" clip-rule="evenodd" fill="#F6D2A2" stroke="#000000" stroke-width="3" stroke-linecap="round" d="
	M392.475,298.493c-0.764,15.751-16.499,8.463-23.626,3.539c-6.765-4.675-8.743-0.789-9.337-10.015
	c-0.389-6.064-1.088-12.128-0.744-18.216c10.23-0.927,21.357,1.509,29.744,7.602C392.831,284.542,400.932,294.561,392.475,298.493"
	/>
<path fill-rule="evenodd" clip-rule="evenodd" fill="#C6B198" stroke="#000000" stroke-width="3" stroke-linecap="round" d="
	M392.475,298.493c-2.29-0.852-4.717-1.457-6.271-3.528"/>
<g>
	<path fill-rule="evenodd" clip-rule="evenodd" fill="#6AD7E5" stroke="#000000" stroke-width="3" stroke-linecap="round" d="
		M195.512,13.124c60.365,0,116.953,8.633,146.452,66.629c26.478,65.006,17.062,135.104,21.1,203.806
		c3.468,58.992,11.157,127.145-16.21,181.812c-28.79,57.514-100.73,71.982-160,69.863c-46.555-1.666-102.794-16.854-129.069-59.389
		c-30.826-49.9-16.232-124.098-13.993-179.622c2.652-65.771-17.815-131.742,3.792-196.101
		C69.999,33.359,130.451,18.271,195.512,13.124"/>
</g>
<path fill-rule="evenodd" clip-rule="evenodd" fill="#FFFFFF" stroke="#000000" stroke-width="2.9081" stroke-linecap="round" d="
	M206.169,94.16c10.838,63.003,113.822,46.345,99.03-17.197C291.935,19.983,202.567,35.755,206.169,94.16"/>
<path fill-rule="evenodd" clip-rule="evenodd" fill="#FFFFFF" stroke="#000000" stroke-width="2.8214" stroke-linecap="round" d="
	M83.103,104.35c14.047,54.85,101.864,40.807,98.554-14.213C177.691,24.242,69.673,36.957,83.103,104.35"/>
<path fill-rule="evenodd" clip-rule="evenodd" fill="#FFFFFF" stroke="#000000" stroke-width="3" stroke-linecap="round" d="
	M218.594,169.762c0.046,8.191,1.861,17.387,0.312,26.101c-2.091,3.952-6.193,4.37-9.729,5.967c-4.89-0.767-9.002-3.978-10.963-8.552
	c-1.255-9.946,0.468-19.576,0.785-29.526L218.594,169.762z"/>
<g>
	<ellipse fill-rule="evenodd" clip-rule="evenodd" cx="107.324" cy="95.404" rx="14.829" ry="16.062"/>
	<ellipse fill-rule="evenodd" clip-rule="evenodd" fill="#FFFFFF" cx="114.069" cy="99.029" rx="3.496" ry="4.082"/>
</g>
<g>
	<ellipse fill-rule="evenodd" clip-rule="evenodd" cx="231.571" cy="91.404" rx="14.582" ry="16.062"/>
	<ellipse fill-rule="evenodd" clip-rule="evenodd" fill="#FFFFFF" cx="238.204" cy="95.029" rx="3.438" ry="4.082"/>
</g>
<path fill-rule="evenodd" clip-rule="evenodd" fill="#FFFFFF" stroke="#000000" stroke-width="3" stroke-linecap="round" d="
	M176.217,168.87c-6.47,15.68,3.608,47.035,21.163,23.908c-1.255-9.946,0.468-19.576,0.785-29.526L176.217,168.87z"/>
<g>
	<path fill-rule="evenodd" clip-rule="evenodd" fill="#F6D2A2" stroke="#231F20" stroke-width="3" stroke-linecap="round" d="
		M178.431,138.673c-12.059,1.028-21.916,15.366-15.646,26.709c8.303,15.024,26.836-1.329,38.379,0.203
		c13.285,0.272,24.17,14.047,34.84,2.49c11.867-12.854-5.109-25.373-18.377-30.97L178.431,138.673z"/>
	<path fill-rule="evenodd" clip-rule="evenodd" d="M176.913,138.045c-0.893-20.891,38.938-23.503,43.642-6.016
		C225.247,149.475,178.874,153.527,176.913,138.045C175.348,125.682,176.913,138.045,176.913,138.045z"/>
</g>
  </g>

    </g>
    <text x="276.0" y="574.0" text-anchor="middle"
          font-family="'JetBrains Mono','Fira Code','SF Mono',Consolas,monospace"
          font-size="22" font-weight="600" fill="#E2E8F0">Go</text>
  </a>
  <a href="https://github.com/macula-io/macula-rust" target="_blank" rel="noopener">
    <g transform="translate(234.46, 86.46) scale(6.7692)">
      <circle cx="54" cy="54" r="13" fill="#FFFFFF" stroke="#0EA5E9" stroke-width="2"/>
  <g transform="translate(43.00, 43.00) scale(0.1528)" fill="#0C1929">
    <path d="m71.05 23.68c-26.06 0-47.27 21.22-47.27 47.27s21.22 47.27 47.27 47.27 47.27-21.22 47.27-47.27-21.22-47.27-47.27-47.27zm-.07 4.2a3.1 3.11 0 0 1 3.02 3.11 3.11 3.11 0 0 1 -6.22 0 3.11 3.11 0 0 1 3.2-3.11zm7.12 5.12a38.27 38.27 0 0 1 26.2 18.66l-3.67 8.28c-.63 1.43.02 3.11 1.44 3.75l7.06 3.13a38.27 38.27 0 0 1 .08 6.64h-3.93c-.39 0-.55.26-.55.64v1.8c0 4.24-2.39 5.17-4.49 5.4-2 .23-4.21-.84-4.49-2.06-1.18-6.63-3.14-8.04-6.24-10.49 3.85-2.44 7.85-6.05 7.85-10.87 0-5.21-3.57-8.49-6-10.1-3.42-2.25-7.2-2.7-8.22-2.7h-40.6a38.27 38.27 0 0 1 21.41-12.08l4.79 5.02c1.08 1.13 2.87 1.18 4 .09zm-44.2 23.02a3.11 3.11 0 0 1 3.02 3.11 3.11 3.11 0 0 1 -6.22 0 3.11 3.11 0 0 1 3.2-3.11zm74.15.14a3.11 3.11 0 0 1 3.02 3.11 3.11 3.11 0 0 1 -6.22 0 3.11 3.11 0 0 1 3.2-3.11zm-68.29.5h5.42v24.44h-10.94a38.27 38.27 0 0 1 -1.24-14.61l6.7-2.98c1.43-.64 2.08-2.31 1.44-3.74zm22.62.26h12.91c.67 0 4.71.77 4.71 3.8 0 2.51-3.1 3.41-5.65 3.41h-11.98zm0 17.56h9.89c.9 0 4.83.26 6.08 5.28.39 1.54 1.26 6.56 1.85 8.17.59 1.8 2.98 5.4 5.53 5.4h16.14a38.27 38.27 0 0 1 -3.54 4.1l-6.57-1.41c-1.53-.33-3.04.65-3.37 2.18l-1.56 7.28a38.27 38.27 0 0 1 -31.91-.15l-1.56-7.28c-.33-1.53-1.83-2.51-3.36-2.18l-6.43 1.38a38.27 38.27 0 0 1 -3.32-3.92h31.27c.35 0 .59-.06.59-.39v-11.06c0-.32-.24-.39-.59-.39h-9.15zm-14.43 25.33a3.11 3.11 0 0 1 3.02 3.11 3.11 3.11 0 0 1 -6.22 0 3.11 3.11 0 0 1 3.2-3.11zm46.05.14a3.11 3.11 0 0 1 3.02 3.11 3.11 3.11 0 0 1 -6.22 0 3.11 3.11 0 0 1 3.2-3.11z"/>
    <path d="m115.68 70.95a44.63 44.63 0 0 1 -44.63 44.63 44.63 44.63 0 0 1 -44.63-44.63 44.63 44.63 0 0 1 44.63-44.63 44.63 44.63 0 0 1 44.63 44.63zm-.84-4.31 6.96 4.31-6.96 4.31 5.98 5.59-7.66 2.87 4.78 6.65-8.09 1.32 3.4 7.46-8.19-.29 1.88 7.98-7.98-1.88.29 8.19-7.46-3.4-1.32 8.09-6.65-4.78-2.87 7.66-5.59-5.98-4.31 6.96-4.31-6.96-5.59 5.98-2.87-7.66-6.65 4.78-1.32-8.09-7.46 3.4.29-8.19-7.98 1.88 1.88-7.98-8.19.29 3.4-7.46-8.09-1.32 4.78-6.65-7.66-2.87 5.98-5.59-6.96-4.31 6.96-4.31-5.98-5.59 7.66-2.87-4.78-6.65 8.09-1.32-3.4-7.46 8.19.29-1.88-7.98 7.98 1.88-.29-8.19 7.46 3.4 1.32-8.09 6.65 4.78 2.87-7.66 5.59 5.98 4.31-6.96 4.31 6.96 5.59-5.98 2.87 7.66 6.65-4.78 1.32 8.09 7.46-3.4-.29 8.19 7.98-1.88-1.88 7.98 8.19-.29-3.4 7.46 8.09 1.32-4.78 6.65 7.66 2.87z" fill-rule="evenodd" stroke="#0C1929" stroke-linecap="round" stroke-linejoin="round" stroke-width="3"/>
  </g>

    </g>
    <text x="600.0" y="574.0" text-anchor="middle"
          font-family="'JetBrains Mono','Fira Code','SF Mono',Consolas,monospace"
          font-size="22" font-weight="600" fill="#E2E8F0">Rust</text>
  </a>
  <a href="https://github.com/macula-io/macula-dotnet" target="_blank" rel="noopener">
    <g transform="translate(558.46, 86.46) scale(6.7692)">
      <circle cx="54" cy="54" r="13" fill="#512BD4" stroke="#0EA5E9" stroke-width="2"/>
  <g transform="translate(43.000, 43.000) scale(0.048246)"><path d="M81.2738 291.333C78.0496 291.333 75.309 290.259 73.052 288.11C70.795 285.906 69.6665 283.289 69.6665 280.259C69.6665 277.173 70.795 274.529 73.052 272.325C75.309 270.121 78.0496 269.019 81.2738 269.019C84.5518 269.019 87.3193 270.121 89.5763 272.325C91.887 274.529 93.0424 277.173 93.0424 280.259C93.0424 283.289 91.887 285.906 89.5763 288.11C87.3193 290.259 84.5518 291.333 81.2738 291.333Z" fill="white"/><path d="M210.167 289.515H189.209L133.994 202.406C132.597 200.202 131.441 197.915 130.528 195.546H130.044C130.474 198.081 130.689 203.508 130.689 211.827V289.515H112.149V171H134.477L187.839 256.043C190.096 259.57 191.547 261.994 192.192 263.316H192.514C191.977 260.176 191.708 254.859 191.708 247.365V171H210.167V289.515Z" fill="white"/><path d="M300.449 289.515H235.561V171H297.87V187.695H254.746V221.249H294.485V237.861H254.746V272.903H300.449V289.515Z" fill="white"/><path d="M392.667 187.695H359.457V289.515H340.272V187.695H307.143V171H392.667V187.695Z" fill="white"/></g>

    </g>
    <text x="924.0" y="574.0" text-anchor="middle"
          font-family="'JetBrains Mono','Fira Code','SF Mono',Consolas,monospace"
          font-size="22" font-weight="600" fill="#E2E8F0">.NET</text>
  </a>

  <!-- Row 1b: native on the BEAM, no port needed - macula direct -->
  <text x="600.0" y="614.0" text-anchor="middle"
        font-family="'JetBrains Mono','Fira Code','SF Mono',Consolas,monospace"
        font-size="14" fill="#64748B">or use macula directly on the BEAM</text>

  <a href="https://github.com/macula-io/macula" target="_blank" rel="noopener">
    <g transform="translate(-89.54, 358.46) scale(6.7692)">
      <circle cx="54" cy="54" r="13" fill="#F8FAFC" stroke="#0EA5E9" stroke-width="2"/>
      <!-- Real Erlang/OTP mark (Ericsson red, #A90533), reused verbatim
           like the Go/Rust/.NET marks - not a redrawing. -->
      <g transform="translate(43.50, 47.34) scale(0.0864)" fill="#A90533">
        <path d="M 38.003327,153.65612 C 19.2,133.73121 8.1983366,106.20487 8.2262178,73.362099 8.2002376,44.316871 17.326257,19.351168 33.015129,0.35394059 l -0.02535,0.009505 -32.97584141,0 0,153.29584441 37.96594041,0 0.02345,-0.003 0,0 z"/>
        <path d="m 211.67271,153.66879 c 8.10012,-8.67548 15.3581,-18.89267 21.93489,-30.57742 l -36.49901,-18.24951 c -12.81837,20.83929 -31.56404,40.02091 -57.48594,40.14891 -37.72641,-0.128 -52.549066,-32.3878 -52.467323,-73.910493 l 140.977423,0 c 0.1882,-4.687841 0.1882,-6.867643 0,-9.124119 0.92008,-24.703366 -5.62693,-45.467881 -17.53663,-61.63833622 l -0.0615,0.0462574 31.74147,0 0,153.29584082 -30.67248,0 0.0691,0.009 0,0 z"/>
        <path d="M 89.437149,35.493743 C 90.997861,16.694218 105.81988,4.0513663 123.19873,4.0133465 c 17.49735,0.03802 30.13957,12.6808715 30.56792,31.4803965 l -64.329501,0 0,0 z"/>
      </g>
    </g>
    <text x="276.0" y="846.0" text-anchor="middle"
          font-family="'JetBrains Mono','Fira Code','SF Mono',Consolas,monospace"
          font-size="22" font-weight="600" fill="#E2E8F0">Erlang</text>
  </a>
  <a href="https://elixir-lang.org" target="_blank" rel="noopener">
    <g transform="translate(234.46, 358.46) scale(6.7692)">
      <circle cx="54" cy="54" r="13" fill="#F8FAFC" stroke="#0EA5E9" stroke-width="2"/>
      <g transform="translate(42, 42)">
        <path d="M14,3 C18,7 20,12 18,17 C16,21 10,21 8,17 C6,13 8,9 11,6 C12,5 13,4 14,3 Z"
              fill="#7B4FA0" stroke="#0C1929" stroke-width="0.8"/>
        <ellipse cx="12.5" cy="8" rx="1.6" ry="2.4" fill="#D9C7EC" opacity="0.85" transform="rotate(-20 12.5 8)"/>
      </g>
    </g>
    <text x="600.0" y="846.0" text-anchor="middle"
          font-family="'JetBrains Mono','Fira Code','SF Mono',Consolas,monospace"
          font-size="22" font-weight="600" fill="#E2E8F0">Elixir</text>
  </a>
  <a href="https://gleam.run" target="_blank" rel="noopener">
    <g transform="translate(558.46, 358.46) scale(6.7692)">
      <circle cx="54" cy="54" r="13" fill="#F8FAFC" stroke="#0EA5E9" stroke-width="2"/>
      <g transform="translate(42, 42)">
        <path d="M13,1 L16,8 L23,11 L16,14 L13,21 L10,14 L3,11 L10,8 Z" fill="#EC4899" stroke="#0C1929" stroke-width="0.8" stroke-linejoin="round"/>
        <circle cx="11" cy="11" r="0.9" fill="#0C1929"/>
        <circle cx="15" cy="11" r="0.9" fill="#0C1929"/>
        <path d="M11,13 Q13,15.2 15,13" fill="none" stroke="#0C1929" stroke-width="0.9" stroke-linecap="round"/>
      </g>
    </g>
    <text x="924.0" y="846.0" text-anchor="middle"
          font-family="'JetBrains Mono','Fira Code','SF Mono',Consolas,monospace"
          font-size="22" font-weight="600" fill="#E2E8F0">Gleam</text>
  </a>

  <!-- Row 2: deployables (run these) -->
  <text x="600.0" y="906.0" text-anchor="middle"
        font-family="'JetBrains Mono','Fira Code','SF Mono',Consolas,monospace"
        font-size="15" font-weight="500" letter-spacing="3px" fill="#64748B">RUN</text>

  <line x1="340.0" y1="932.0" x2="860.0" y2="932.0" stroke="#1E293B" stroke-width="1"/>

  <a href="https://github.com/macula-io/macula-cli" target="_blank" rel="noopener">
    <g transform="translate(-89.54, 676.46) scale(6.7692)">
      <circle cx="54" cy="54" r="13" fill="#1E293B" stroke="#38BDF8" stroke-width="2"/>
      <g transform="translate(42, 42)" stroke="#F8FAFC" stroke-width="1.7" stroke-linecap="round" stroke-linejoin="round" fill="none">
        <path d="M7,7 L13,12 L7,17"/>
        <line x1="14" y1="17" x2="19" y2="17"/>
      </g>
    </g>
    <text x="276.0" y="1164.0" text-anchor="middle"
          font-family="'JetBrains Mono','Fira Code','SF Mono',Consolas,monospace"
          font-size="22" font-weight="600" fill="#E2E8F0">CLI</text>
  </a>
  <a href="https://github.com/macula-io/macula-mcp" target="_blank" rel="noopener">
    <g transform="translate(234.46, 676.46) scale(6.7692)">
      <circle cx="54" cy="54" r="13" fill="#1E293B" stroke="#38BDF8" stroke-width="2"/>
      <g transform="translate(42, 42)" stroke="#F8FAFC" stroke-width="1.7" stroke-linecap="round" stroke-linejoin="round" fill="none">
        <path d="M9,10 L9,17 A3,3 0 0 0 12,20 L14,20 A3,3 0 0 0 17,17 L17,10"/>
        <line x1="11" y1="6" x2="11" y2="10"/>
        <line x1="15" y1="6" x2="15" y2="10"/>
        <line x1="13" y1="20" x2="13" y2="24"/>
      </g>
    </g>
    <text x="600.0" y="1164.0" text-anchor="middle"
          font-family="'JetBrains Mono','Fira Code','SF Mono',Consolas,monospace"
          font-size="22" font-weight="600" fill="#E2E8F0">MCP</text>
  </a>
  <a href="https://github.com/macula-io/macula-station" target="_blank" rel="noopener">
    <g transform="translate(558.46, 676.46) scale(6.7692)">
      <circle cx="54" cy="54" r="13" fill="#1E293B" stroke="#38BDF8" stroke-width="2"/>
      <g transform="translate(42, 42)">
        <path d="M12,22 L12,8 M8,22 L12,14 L16,22 M6,22 L18,22"
              fill="none" stroke="#F8FAFC" stroke-width="1.6"
              stroke-linecap="round" stroke-linejoin="round"/>
        <circle cx="12" cy="6" r="1.4" fill="#F8FAFC"/>
        <path d="M15,4 A3,3 0 0 1 15,8" fill="none" stroke="#38BDF8" stroke-width="1.4" stroke-linecap="round"/>
        <path d="M17.5,2 A6,6 0 0 1 17.5,10" fill="none" stroke="#38BDF8" stroke-width="1.4" stroke-linecap="round" opacity="0.85"/>
        <path d="M9,4 A3,3 0 0 0 9,8" fill="none" stroke="#38BDF8" stroke-width="1.4" stroke-linecap="round"/>
        <path d="M6.5,2 A6,6 0 0 0 6.5,10" fill="none" stroke="#38BDF8" stroke-width="1.4" stroke-linecap="round" opacity="0.85"/>
      </g>
    </g>
    <text x="924.0" y="1164.0" text-anchor="middle"
          font-family="'JetBrains Mono','Fira Code','SF Mono',Consolas,monospace"
          font-size="22" font-weight="600" fill="#E2E8F0">Station</text>
  </a>

  <text x="600.0" y="1204.0" text-anchor="middle"
        font-family="'JetBrains Mono','Fira Code','SF Mono',Consolas,monospace"
        font-size="16" fill="#475569">github.com/macula-io</text>
</svg>
